<?xml version="1.0" encoding="UTF-8" standalone="no"?>
<svg
   xmlns:dc="http://purl.org/dc/elements/1.1/"
   xmlns:cc="http://creativecommons.org/ns#"
   xmlns:rdf="http://www.w3.org/1999/02/22-rdf-syntax-ns#"
   xmlns:svg="http://www.w3.org/2000/svg"
   xmlns="http://www.w3.org/2000/svg"
   id="svg13"
   xml:space="preserve"
   viewBox="0 0 1024 768"
   y="0px"
   x="0px"
   version="1.1"><metadata
     id="metadata19"><rdf:RDF><cc:Work
         rdf:about=""><dc:format>image/svg+xml</dc:format><dc:type
           rdf:resource="http://purl.org/dc/dcmitype/StillImage" /></cc:Work></rdf:RDF></metadata><defs
     id="defs17" /><rect
     id="rect2"
     height="768"
     width="1024"
     fill="#38393a" /><g
     transform="matrix(1.1183,0,0,1.1183,-60.569,-51.663)"
     id="logo-group"><path
       stroke-miterlimit="2"
       d="m 306.21,492.71 c 7.9992,0 15.126,-4.3632 20.362,-11.926 l 0.43632,0.14544 -1.309,10.472 h 21.961 l 8.7264,-71.12 h -21.961 l -0.58176,4.945 h -0.43632 c -3.7814,-3.9269 -9.3082,-6.2539 -16.726,-6.2539 -18.616,0 -33.597,19.344 -33.597,44.65 0,16.435 7.8538,29.088 23.125,29.088 z m 6.9811,-19.344 c -4.945,0 -8.1446,-4.5086 -8.1446,-11.344 0,-10.617 5.8176,-23.561 15.417,-23.561 4.5086,0 8.581,1.7453 11.781,5.0904 l -0.29088,2.0362 c -2.4725,17.889 -11.199,27.779 -18.762,27.779 z"
       style="font-variant-ligatures:none;fill:#f2f0ea;stroke-width:0;stroke-miterlimit:2"
       id="path150976" /><path
       stroke-miterlimit="2"
       d="m 370.23,420.28 -12.362,99.917 h 21.816 l 3.9269,-32.142 0.58176,-0.14544 c 4.3632,3.3451 9.8899,4.7995 16.58,4.7995 19.053,0 34.033,-19.344 34.033,-44.65 0,-16.144 -7.7083,-29.088 -22.543,-29.088 -9.0173,0 -16.144,4.6541 -21.38,12.217 l -0.14544,-0.29088 1.309,-10.617 z m 24.725,53.086 c -3.7814,0 -7.4174,-1.4544 -9.599,-4.3632 l 0.14544,-1.8907 c 2.6179,-18.616 11.49,-28.797 19.489,-28.797 4.945,0 7.9992,5.0904 7.9992,11.926 0,11.781 -6.2539,23.125 -18.035,23.125 z"
       style="font-variant-ligatures:none;fill:#f2f0ea;stroke-width:0;stroke-miterlimit:2"
       id="path150978" /><path
       stroke-miterlimit="2"
       d="m 449.66,420.28 -12.362,99.917 h 21.816 l 3.9269,-32.142 0.58176,-0.14544 c 4.3632,3.3451 9.8899,4.7995 16.58,4.7995 19.053,0 34.033,-19.344 34.033,-44.65 0,-16.144 -7.7083,-29.088 -22.543,-29.088 -9.0173,0 -16.144,4.6541 -21.38,12.217 l -0.14544,-0.29088 1.309,-10.617 z m 24.725,53.086 c -3.7814,0 -7.4174,-1.4544 -9.599,-4.3632 l 0.14544,-1.8907 c 2.6179,-18.616 11.49,-28.797 19.489,-28.797 4.945,0 7.9992,5.0904 7.9992,11.926 0,11.781 -6.2539,23.125 -18.035,23.125 z"
       style="font-variant-ligatures:none;fill:#f2f0ea;stroke-width:0;stroke-miterlimit:2"
       id="path150980" /><path
       stroke-miterlimit="2"
       d="m 543.04,411.11 c 7.9992,0 13.526,-5.5267 13.526,-12.944 0,-7.1266 -5.2358,-12.362 -13.09,-12.362 -7.9992,0 -13.526,5.3813 -13.526,12.799 0,7.1266 5.3813,12.508 13.09,12.508 z m -13.526,9.1627 -8.7264,71.12 h 21.816 l 8.7264,-71.12 z"
       style="font-variant-ligatures:none;fill:#f2f0ea;stroke-width:0;stroke-miterlimit:2"
       id="path150982" /><path
       stroke-miterlimit="2"
       d="m 566.18,420.28 -8.8718,71.12 h 21.816 l 3.1997,-26.325 c 2.327,-17.744 11.635,-26.616 18.18,-26.616 4.6541,0 5.5267,4.5086 4.2178,14.399 l -5.0904,38.542 h 21.671 l 5.6722,-43.487 c 2.6179,-19.925 -2.9088,-28.943 -16.435,-28.943 -9.3082,0 -17.162,3.9269 -23.561,11.344 l -0.29088,-0.14544 1.1635,-9.8899 z"
       style="font-variant-ligatures:none;fill:#f2f0ea;stroke-width:0;stroke-miterlimit:2"
       id="path150984" /><path
       stroke-miterlimit="2"
       d="m 657.86,411.11 c 7.9992,0 13.526,-5.5267 13.526,-12.944 0,-7.1266 -5.2358,-12.362 -13.09,-12.362 -7.9992,0 -13.526,5.3813 -13.526,12.799 0,7.1266 5.3813,12.508 13.09,12.508 z m -13.526,9.1627 -8.7264,71.12 h 21.816 l 8.7264,-71.12 z"
       style="font-variant-ligatures:none;fill:#f2f0ea;stroke-width:0;stroke-miterlimit:2"
       id="path150986" /><path
       stroke-miterlimit="2"
       d="m 691.32,454.45 -25.888,36.942 h 23.561 l 12.217,-17.889 h 0.29088 l 7.5629,17.889 h 23.27 l -17.15,-35.77 25.74,-35.34 h -24.725 l -10.617,17.162 h -0.14544 l -6.5448,-17.162 h -24.143 z"
       style="font-variant-ligatures:none;fill:#f2f0ea;stroke-width:0;stroke-miterlimit:2"
       id="path150988" /><path
       style="fill:#928d7f;stroke-width:0.60000002"
       d="m 512.05,258.96 c -26.998,-0.007 -33.773,0 -33.785,0.0334 -0.009,0.023 -0.012,21.982 -0.007,48.797 l 0.01,48.758 h 67.554 v -97.584 z"
       id="icon" /></g></svg>