<?xml version="1.0" encoding="UTF-8" standalone="no"?>
<svg
   xmlns:dc="http://purl.org/dc/elements/1.1/"
   xmlns:cc="http://creativecommons.org/ns#"
   xmlns:rdf="http://www.w3.org/1999/02/22-rdf-syntax-ns#"
   xmlns:svg="http://www.w3.org/2000/svg"
   xmlns="http://www.w3.org/2000/svg"
   id="svg13"
   version="1.1"
   height="224"
   width="556">
  <metadata
     id="metadata19">
    <rdf:RDF>
      <cc:Work
         rdf:about="">
        <dc:format>image/svg+xml</dc:format>
        <dc:type
           rdf:resource="http://purl.org/dc/dcmitype/StillImage" />
      </cc:Work>
    </rdf:RDF>
  </metadata>
  <defs
     id="defs17" />
  <g
     id="g5">
    <title
       id="title2">background</title>
    <path
       id="canvas_background"
       d="M -1,-1 H 557 V 225 H -1 Z"
       style="fill:none" />
  </g>
  <g
     id="g11">
    <title
       id="title7">Layer 1</title>
    <g
       id="svg_1"
       transform="translate(0,-1)">
      <path
         style="fill:#d2cfc6"
         d="M 240.28,-135 Z M 313.2,6.82 c -8.94,0 -15.12,6.01 -15.12,14.31 0,7.97 6.02,13.98 14.64,13.98 8.94,0 15.12,-6.18 15.12,-14.47 0,-7.97 -5.85,-13.82 -14.64,-13.82 z m 128.41,0 c -8.95,0 -15.13,6.01 -15.13,14.31 0,7.97 6.02,13.98 14.64,13.98 8.94,0 15.12,-6.18 15.12,-14.47 0,-7.97 -5.85,-13.82 -14.63,-13.82 z M 59.57,43.9 C 38.75,43.9 22,65.53 22,93.83 c 0,18.38 8.78,32.53 25.86,32.53 8.95,0 16.92,-4.88 22.77,-13.34 l 0.49,0.16 -1.47,11.72 h 24.56 l 9.76,-79.54 H 79.41 l -0.65,5.53 H 78.28 C 74.05,46.5 67.87,43.9 59.57,43.9 Z m 106.9,0 c -10.09,0 -18.06,5.2 -23.91,13.66 l -0.16,-0.32 1.46,-11.88 h -24.4 L 105.64,157.1 h 24.4 l 4.39,-35.95 0.65,-0.16 c 4.88,3.74 11.06,5.37 18.54,5.37 21.31,0 38.06,-21.63 38.06,-49.93 0,-18.06 -8.62,-32.53 -25.21,-32.53 z m 88.82,0 c -10.09,0 -18.06,5.2 -23.91,13.66 l -0.17,-0.32 1.47,-11.88 h -24.4 L 194.46,157.1 h 24.39 l 4.4,-35.95 0.65,-0.16 c 4.88,3.74 11.06,5.37 18.54,5.37 21.3,0 38.06,-21.63 38.06,-49.93 0,-18.06 -8.62,-32.53 -25.21,-32.53 z m 132.91,0 c -10.41,0 -19.2,4.39 -26.35,12.68 l -0.33,-0.16 1.3,-11.06 h -24.23 l -9.92,79.54 h 24.39 l 3.58,-29.44 c 2.6,-19.85 13.01,-29.77 20.33,-29.77 5.21,0 6.18,5.04 4.72,16.1 L 376,124.9 h 24.23 l 6.34,-48.64 C 409.5,53.98 403.32,43.9 388.2,43.9 Z m -90.61,1.46 -9.76,79.54 h 24.4 l 9.76,-79.54 z m 128.4,0 -9.76,79.54 h 24.4 l 9.76,-79.54 z m 34.01,0 18.54,38.22 -28.95,41.32 h 26.35 l 13.66,-20.01 h 0.32 l 8.46,20.01 H 524.4 L 505.21,84.88 534,45.36 h -27.65 l -11.87,19.19 h -0.17 L 487,45.36 Z M 158.33,65.53 c 5.53,0 8.95,5.69 8.95,13.34 0,13.17 -6.99,25.86 -20.17,25.86 -4.23,0 -8.29,-1.63 -10.73,-4.88 l 0.16,-2.12 c 2.93,-20.82 12.85,-32.2 21.79,-32.2 z m 88.82,0 c 5.53,0 8.95,5.69 8.95,13.34 0,13.17 -6.99,25.86 -20.17,25.86 -4.23,0 -8.29,-1.63 -10.73,-4.88 l 0.16,-2.12 c 2.93,-20.82 12.85,-32.2 21.79,-32.2 z M 63.8,65.69 c 5.04,0 9.6,1.95 13.17,5.7 l -0.32,2.27 c -2.77,20.01 -12.52,31.07 -20.98,31.07 -5.53,0 -9.11,-5.04 -9.11,-12.69 0,-11.87 6.51,-26.35 17.24,-26.35 z"
         id="svg_2" />
    </g>
  </g>
</svg>
