<?xml version="1.0" encoding="UTF-8" standalone="no"?>
<svg
   xmlns:dc="http://purl.org/dc/elements/1.1/"
   xmlns:cc="http://creativecommons.org/ns#"
   xmlns:rdf="http://www.w3.org/1999/02/22-rdf-syntax-ns#"
   xmlns:svg="http://www.w3.org/2000/svg"
   xmlns="http://www.w3.org/2000/svg"
   id="svg4"
   xml:space="preserve"
   viewBox="0 0 1024 768"
   y="0px"
   x="0px"
   version="1.1"><metadata
     id="metadata10"><rdf:RDF><cc:Work
         rdf:about=""><dc:format>image/svg+xml</dc:format><dc:type
           rdf:resource="http://purl.org/dc/dcmitype/StillImage" /></cc:Work></rdf:RDF></metadata><defs
     id="defs8" /><path
     id="path2"
     d="m512.06 237.93c-30.19 0-37.77 0-37.78 0.04-0.01 0.03-0.02 24.58-0.01 54.57l0.01 54.53h75.55v-109.13l-37.77-0.01zm35.14 141.86c-8.94 0-15.12 6.01-15.12 14.31 0 7.97 6.02 13.98 14.64 13.98 8.94 0 15.12-6.18 15.12-14.47 0-7.97-5.85-13.82-14.64-13.82zm128.41 0c-8.95 0-15.13 6.01-15.13 14.31 0 7.97 6.02 13.98 14.64 13.98 8.94 0 15.12-6.18 15.12-14.47 0-7.97-5.85-13.82-14.63-13.82zm-382.04 37.08c-20.82 0-37.57 21.63-37.57 49.93 0 18.38 8.78 32.53 25.86 32.53 8.95 0 16.92-4.88 22.77-13.34l0.49 0.16-1.47 11.72h24.56l9.76-79.54h-24.56l-0.65 5.53h-0.48c-4.23-4.39-10.41-6.99-18.71-6.99zm106.9 0c-10.09 0-18.06 5.2-23.91 13.66l-0.16-0.32 1.46-11.88h-24.4l-13.82 111.74h24.4l4.39-35.95 0.65-0.16c4.88 3.74 11.06 5.37 18.54 5.37 21.31 0 38.06-21.63 38.06-49.93 0-18.06-8.62-32.53-25.21-32.53zm88.82 0c-10.09 0-18.06 5.2-23.91 13.66l-0.17-0.32 1.47-11.88h-24.4l-13.82 111.74h24.39l4.4-35.95 0.65-0.16c4.88 3.74 11.06 5.37 18.54 5.37 21.3 0 38.06-21.63 38.06-49.93 0-18.06-8.62-32.53-25.21-32.53zm132.91 0c-10.41 0-19.2 4.39-26.35 12.68l-0.33-0.16 1.3-11.06h-24.23l-9.92 79.54h24.39l3.58-29.44c2.6-19.85 13.01-29.77 20.33-29.77 5.21 0 6.18 5.04 4.72 16.1l-5.69 43.11h24.23l6.34-48.64c2.93-22.28-3.25-32.36-18.37-32.36zm-90.61 1.46l-9.76 79.54h24.4l9.76-79.54h-24.4zm128.4 0l-9.76 79.54h24.4l9.76-79.54h-24.4zm34.01 0l18.54 38.22-28.95 41.32h26.35l13.66-20.01h0.32l8.46 20.01h26.02l-19.19-40.02 28.79-39.52h-27.65l-11.87 19.19h-0.17l-7.31-19.19h-27zm-301.67 20.17c5.53 0 8.95 5.69 8.95 13.34 0 13.17-6.99 25.86-20.17 25.86-4.23 0-8.29-1.63-10.73-4.88l0.16-2.12c2.93-20.82 12.85-32.2 21.79-32.2zm88.82 0c5.53 0 8.95 5.69 8.95 13.34 0 13.17-6.99 25.86-20.17 25.86-4.23 0-8.29-1.63-10.73-4.88l0.16-2.12c2.93-20.82 12.85-32.2 21.79-32.2zm-183.35 0.16c5.04 0 9.6 1.95 13.17 5.7l-0.32 2.27c-2.77 20.01-12.52 31.07-20.98 31.07-5.53 0-9.11-5.04-9.11-12.69 0-11.87 6.51-26.35 17.24-26.35z"
     fill="#d2cfc6" /></svg>