<?xml version="1.0" encoding="UTF-8" standalone="no"?>
<svg
   xmlns:dc="http://purl.org/dc/elements/1.1/"
   xmlns:cc="http://creativecommons.org/ns#"
   xmlns:rdf="http://www.w3.org/1999/02/22-rdf-syntax-ns#"
   xmlns:svg="http://www.w3.org/2000/svg"
   xmlns="http://www.w3.org/2000/svg"
   id="svg4"
   xml:space="preserve"
   enable-background="new 0 0 200 200"
   viewBox="0 0 200 200"
   y="0px"
   x="0px"
   version="1.1"><metadata
     id="metadata10"><rdf:RDF><cc:Work
         rdf:about=""><dc:format>image/svg+xml</dc:format><dc:type
           rdf:resource="http://purl.org/dc/dcmitype/StillImage" /></cc:Work></rdf:RDF></metadata><defs
     id="defs8" /><path
     id="path2"
     d="m95.029 40c-30.296 0-54.674 31.479-54.674 72.662 0 26.746 12.781 47.338 37.633 47.338 13.018 0 24.616-7.1005 33.137-19.408l0.70897 0.23633-2.1289 17.041h35.738l14.2-115.74h-35.738l-0.94727 8.0469h-0.71094c-6.15-6.39-15.14-10.177-27.211-10.177zm6.1543 31.717c7.3373 0 13.965 2.8394 19.172 8.2832l-0.47461 3.3145c-4.0237 29.112-18.224 45.207-30.531 45.207-8.0473 0-13.256-7.3386-13.256-18.463 0-17.278 9.4685-38.342 25.09-38.342z"
     fill="#b2aea2" /></svg>